<svg width="600" height="400" xmlns="http://www.w3.org/2000/svg" viewBox="0 0 600 400">
  <defs>
    <linearGradient id="bgGrad" x1="0%" y1="0%" x2="100%" y2="100%">
      <stop offset="0%" style="stop-color:#667eea;stop-opacity:1" />
      <stop offset="100%" style="stop-color:#764ba2;stop-opacity:1" />
    </linearGradient>
  </defs>
  
  <rect width="600" height="400" fill="url(#bgGrad)"/>
  
  <!-- Person 1 -->
  <circle cx="120" cy="100" r="30" fill="#f4a460"/>
  <rect x="100" y="135" width="40" height="80" fill="#2f4f4f"/>
  <rect x="95" y="135" width="15" height="60" fill="#f4a460"/>
  <rect x="150" y="135" width="15" height="60" fill="#f4a460"/>
  <rect x="100" y="215" width="12" height="40" fill="#2f4f4f"/>
  <rect x="128" y="215" width="12" height="40" fill="#2f4f4f"/>
  
  <!-- Person 2 (Center, taller) -->
  <circle cx="300" cy="80" r="35" fill="#daa520"/>
  <rect x="275" y="120" width="50" height="90" fill="#1c1c1c"/>
  <rect x="265" y="120" width="18" height="70" fill="#daa520"/>
  <rect x="317" y="120" width="18" height="70" fill="#daa520"/>
  <rect x="280" y="210" width="15" height="45" fill="#1c1c1c"/>
  <rect x="305" y="210" width="15" height="45" fill="#1c1c1c"/>
  
  <!-- Person 3 -->
  <circle cx="480" cy="100" r="30" fill="#d2691e"/>
  <rect x="460" y="135" width="40" height="80" fill="#36454f"/>
  <rect x="455" y="135" width="15" height="60" fill="#d2691e"/>
  <rect x="505" y="135" width="15" height="60" fill="#d2691e"/>
  <rect x="460" y="215" width="12" height="40" fill="#36454f"/>
  <rect x="488" y="215" width="12" height="40" fill="#36454f"/>
  
  <!-- Briefcase/Document icons -->
  <rect x="100" y="280" width="35" height="40" fill="#FFD700" stroke="#333" stroke-width="2" rx="3"/>
  <line x1="117" y1="280" x2="117" y2="320" stroke="#333" stroke-width="1"/>
  
  <rect x="280" y="280" width="40" height="45" fill="#FFD700" stroke="#333" stroke-width="2" rx="3"/>
  <circle cx="300" cy="302" r="3" fill="#333"/>
  
  <rect x="460" y="280" width="35" height="40" fill="#FFD700" stroke="#333" stroke-width="2" rx="3"/>
  <line x1="477" y1="280" x2="477" y2="320" stroke="#333" stroke-width="1"/>
  
  <!-- Connection lines -->
  <line x1="150" y1="150" x2="265" y2="150" stroke="rgba(255,255,255,0.3)" stroke-width="2" stroke-dasharray="5,5"/>
  <line x1="325" y1="155" x2="455" y2="155" stroke="rgba(255,255,255,0.3)" stroke-width="2" stroke-dasharray="5,5"/>
</svg>
