<svg width="600" height="400" xmlns="http://www.w3.org/2000/svg" viewBox="0 0 600 400">
  <defs>
    <linearGradient id="buildGradient" x1="0%" y1="0%" x2="0%" y2="100%">
      <stop offset="0%" style="stop-color:#4facfe;stop-opacity:1" />
      <stop offset="100%" style="stop-color:#00f2fe;stop-opacity:1" />
    </linearGradient>
  </defs>
  
  <rect width="600" height="400" fill="url(#buildGradient)"/>
  
  <!-- Main Building -->
  <rect x="80" y="80" width="450" height="280" fill="#f5f5f5" stroke="#333" stroke-width="2"/>
  
  <!-- Apartments Grid -->
  <!-- Row 1 -->
  <rect x="100" y="100" width="80" height="80" fill="#e8f4f8" stroke="#2c3e50" stroke-width="2"/>
  <rect x="110" y="110" width="25" height="25" fill="#87CEEB" stroke="#333"/>
  <rect x="140" y="110" width="25" height="25" fill="#87CEEB" stroke="#333"/>
  <rect x="110" y="145" width="25" height="25" fill="#87CEEB" stroke="#333"/>
  <rect x="140" y="145" width="25" height="25" fill="#87CEEB" stroke="#333"/>
  
  <rect x="195" y="100" width="80" height="80" fill="#e8f4f8" stroke="#2c3e50" stroke-width="2"/>
  <rect x="205" y="110" width="25" height="25" fill="#87CEEB" stroke="#333"/>
  <rect x="235" y="110" width="25" height="25" fill="#87CEEB" stroke="#333"/>
  <rect x="205" y="145" width="25" height="25" fill="#87CEEB" stroke="#333"/>
  <rect x="235" y="145" width="25" height="25" fill="#87CEEB" stroke="#333"/>
  
  <rect x="290" y="100" width="80" height="80" fill="#e8f4f8" stroke="#2c3e50" stroke-width="2"/>
  <rect x="300" y="110" width="25" height="25" fill="#87CEEB" stroke="#333"/>
  <rect x="330" y="110" width="25" height="25" fill="#87CEEB" stroke="#333"/>
  <rect x="300" y="145" width="25" height="25" fill="#87CEEB" stroke="#333"/>
  <rect x="330" y="145" width="25" height="25" fill="#87CEEB" stroke="#333"/>
  
  <rect x="385" y="100" width="80" height="80" fill="#e8f4f8" stroke="#2c3e50" stroke-width="2"/>
  <rect x="395" y="110" width="25" height="25" fill="#87CEEB" stroke="#333"/>
  <rect x="425" y="110" width="25" height="25" fill="#87CEEB" stroke="#333"/>
  <rect x="395" y="145" width="25" height="25" fill="#87CEEB" stroke="#333"/>
  <rect x="425" y="145" width="25" height="25" fill="#87CEEB" stroke="#333"/>
  
  <!-- Row 2 -->
  <rect x="100" y="200" width="80" height="80" fill="#e8f4f8" stroke="#2c3e50" stroke-width="2"/>
  <rect x="110" y="210" width="25" height="25" fill="#87CEEB" stroke="#333"/>
  <rect x="140" y="210" width="25" height="25" fill="#87CEEB" stroke="#333"/>
  <rect x="110" y="245" width="25" height="25" fill="#87CEEB" stroke="#333"/>
  <rect x="140" y="245" width="25" height="25" fill="#87CEEB" stroke="#333"/>
  
  <rect x="195" y="200" width="80" height="80" fill="#e8f4f8" stroke="#2c3e50" stroke-width="2"/>
  <rect x="205" y="210" width="25" height="25" fill="#87CEEB" stroke="#333"/>
  <rect x="235" y="210" width="25" height="25" fill="#87CEEB" stroke="#333"/>
  <rect x="205" y="245" width="25" height="25" fill="#87CEEB" stroke="#333"/>
  <rect x="235" y="245" width="25" height="25" fill="#87CEEB" stroke="#333"/>
  
  <rect x="290" y="200" width="80" height="80" fill="#e8f4f8" stroke="#2c3e50" stroke-width="2"/>
  <rect x="300" y="210" width="25" height="25" fill="#87CEEB" stroke="#333"/>
  <rect x="330" y="210" width="25" height="25" fill="#87CEEB" stroke="#333"/>
  <rect x="300" y="245" width="25" height="25" fill="#87CEEB" stroke="#333"/>
  <rect x="330" y="245" width="25" height="25" fill="#87CEEB" stroke="#333"/>
  
  <rect x="385" y="200" width="80" height="80" fill="#e8f4f8" stroke="#2c3e50" stroke-width="2"/>
  <rect x="395" y="210" width="25" height="25" fill="#87CEEB" stroke="#333"/>
  <rect x="425" y="210" width="25" height="25" fill="#87CEEB" stroke="#333"/>
  <rect x="395" y="245" width="25" height="25" fill="#87CEEB" stroke="#333"/>
  <rect x="425" y="245" width="25" height="25" fill="#87CEEB" stroke="#333"/>
  
  <!-- Entrance -->
  <rect x="290" y="310" width="40" height="50" fill="#8B4513" stroke="#333" stroke-width="2"/>
  <circle cx="310" cy="335" r="4" fill="#FFD700"/>
  
  <!-- Checkmark symbols for management -->
  <g id="check">
    <circle cx="540" cy="120" r="20" fill="#4CAF50" opacity="0.8"/>
    <polyline points="535,125 540,130 550,115" stroke="white" stroke-width="3" fill="none" stroke-linecap="round"/>
  </g>
  
  <use href="#check" x="0" y="60"/>
  <use href="#check" x="0" y="120"/>
  
  <!-- Shield icon -->
  <path d="M 540 280 L 540 310 Q 540 340 550 360 Q 560 340 560 310 L 560 280 Z" fill="#FF6B6B" stroke="#333" stroke-width="2"/>
  <text x="550" y="310" font-size="20" font-weight="bold" fill="white" text-anchor="middle">24/7</text>
</svg>
